<svg xmlns="http://www.w3.org/2000/svg" width="22" height="22" viewBox="0 0 22 22">
  <g id="Group_1746" data-name="Group 1746" transform="translate(-727.192 -277.944)">
    <path id="Path_801" data-name="Path 801" d="M736.673,295.6a6.087,6.087,0,0,0,8.531,2.5l2.962.819-.819-2.962a6.065,6.065,0,0,0,.845-3.1h0a6.1,6.1,0,0,0-3.347-5.434" fill="none" stroke="#a81417" stroke-linecap="round" stroke-linejoin="round" stroke-width="2"/>
    <path id="Path_802" data-name="Path 802" d="M748.192,292.859" fill="none" stroke="#a81417" stroke-linecap="round" stroke-linejoin="round" stroke-width="2"/>
    <path id="Path_803" data-name="Path 803" d="M742.567,286.131a7.188,7.188,0,1,0-13.378,3.653l-.97,3.508,3.508-.97a7.188,7.188,0,0,0,10.84-6.191Z" fill="none" stroke="#a81417" stroke-linecap="round" stroke-linejoin="round" stroke-width="2"/>
    <path id="Path_804" data-name="Path 804" d="M734.436,288.515" fill="none" stroke="#a81417" stroke-linecap="round" stroke-linejoin="round" stroke-width="2"/>
    <line id="Line_417" data-name="Line 417" x2="6.477" transform="translate(732.141 285.185)" fill="none" stroke="#a81417" stroke-linecap="round" stroke-linejoin="round" stroke-width="2"/>
    <line id="Line_418" data-name="Line 418" x2="4.909" transform="translate(732.141 288.123)" fill="none" stroke="#a81417" stroke-linecap="round" stroke-linejoin="round" stroke-width="2"/>
  </g>
</svg>
