<svg xmlns="http://www.w3.org/2000/svg" width="500" height="500" viewBox="0 0 19.147 19.147">
  <path id="globe" d="M0,9.323a9.344,9.344,0,0,0,9.323,9.323h0A9.323,9.323,0,1,0,0,9.323Zm1.093,0a8.182,8.182,0,0,1,1.3-4.44l1.037.253a.6.6,0,0,1,.38.874,1.624,1.624,0,0,0,.541,2.114L6.715,9.7l.543,1.085a.957.957,0,0,1-.18,1.107l-.326.326a.546.546,0,0,0,0,.773l.652.652a.952.952,0,0,1,.281.678A7.282,7.282,0,0,0,8.415,17.5a8.242,8.242,0,0,1-7.323-8.18Zm7.142.971L8.022,9.87H8.1a1.422,1.422,0,0,1,1.279.791,2.509,2.509,0,0,0,2.257,1.395h.417V12.6a1.627,1.627,0,0,1-.487,1.166,11.756,11.756,0,0,0-2.282,3.015,6.311,6.311,0,0,1-.508-2.466,2.038,2.038,0,0,0-.6-1.45L7.91,12.6a2.048,2.048,0,0,0,.325-2.306Zm1.911,7.219a10.386,10.386,0,0,1,2.19-2.968,2.712,2.712,0,0,0,.812-1.944V11.509a.546.546,0,0,0-.546-.546h-.964a1.422,1.422,0,0,1-1.279-.791A2.509,2.509,0,0,0,8.1,8.777H7.476L7.31,8.445a1.228,1.228,0,0,1,.608-1.631,1.67,1.67,0,0,0,.86-1.493V4.953a.547.547,0,0,1,.546-.546h.659a1.64,1.64,0,0,0,1.553-2.164l-.31-.928a8.209,8.209,0,0,1,3.291,1.628l-.167.5a.549.549,0,0,1-.132.214l-.59.59a1.628,1.628,0,0,0-.48,1.159v.64a1.641,1.641,0,0,0,1.639,1.639.547.547,0,0,1,.546.546v.835a.55.55,0,0,1-.058.244l-.187.373a1.639,1.639,0,0,0,1.466,2.371h.534A8.252,8.252,0,0,1,10.145,17.513Zm7.409-8.19a8.237,8.237,0,0,1-.164,1.639h-.836a.546.546,0,0,1-.489-.791l.187-.373a1.648,1.648,0,0,0,.173-.733V8.231a1.641,1.641,0,0,0-1.639-1.639.547.547,0,0,1-.546-.546v-.64a.543.543,0,0,1,.16-.386l.59-.59a1.647,1.647,0,0,0,.4-.641l.006-.019A8.2,8.2,0,0,1,17.554,9.323ZM9.323,1.093c.231,0,.46.01.686.029l.49,1.47a.546.546,0,0,1-.517.722H9.323A1.641,1.641,0,0,0,7.685,4.953v.368a.581.581,0,0,1-.266.521A2.366,2.366,0,0,0,6.1,7.972L4.96,7.215a.525.525,0,0,1-.189-.679A1.694,1.694,0,0,0,3.695,4.075l-.586-.143a8.215,8.215,0,0,1,6.215-2.84Z" transform="translate(0.25 0.25)" fill="#a81417" stroke="#a81417" stroke-width="0.5"/>
</svg>
