<svg xmlns="http://www.w3.org/2000/svg" width="500" height="500" viewBox="0 0 19.499 20.121">
  <g id="Group_1370" data-name="Group 1370" transform="translate(-705.539 -589.379)">
    <g id="Group_1368" data-name="Group 1368">
      <path id="Path_703" data-name="Path 703" d="M710.457,608.44l1.16-1.161a.408.408,0,0,0,0-.578l-1.16-1.16" fill="none" stroke="#B8C1D4" stroke-linecap="round" stroke-linejoin="round" stroke-width="1.5"/>
      <path id="Path_704" data-name="Path 704" d="M706.289,602.59v1.372a3.03,3.03,0,0,0,3.028,3.028H711.2" fill="none" stroke="#B8C1D4" stroke-linecap="round" stroke-linejoin="round" stroke-width="1.5"/>
    </g>
    <g id="Group_1369" data-name="Group 1369">
      <path id="Path_705" data-name="Path 705" d="M719.415,590.44l-1.16,1.16a.409.409,0,0,0,0,.579l1.16,1.16" fill="none" stroke="#B8C1D4" stroke-linecap="round" stroke-linejoin="round" stroke-width="1.5"/>
      <path id="Path_706" data-name="Path 706" d="M723.583,596.29v-1.372a3.03,3.03,0,0,0-3.028-3.028h-1.879" fill="none" stroke="#B8C1D4" stroke-linecap="round" stroke-linejoin="round" stroke-width="1.5"/>
    </g>
    <path id="Path_707" data-name="Path 707" d="M714.353,598.505h-8.064V590.44h8.064Zm0,0" fill="none" stroke="#B8C1D4" stroke-linecap="round" stroke-linejoin="round" stroke-width="1.5"/>
    <path id="Path_708" data-name="Path 708" d="M724.288,608.44h-8.064v-8.065h8.064Zm0,0" fill="none" stroke="#B8C1D4" stroke-linecap="round" stroke-linejoin="round" stroke-width="1.5"/>
  </g>
</svg>
