<svg xmlns="http://www.w3.org/2000/svg" width="35.078" height="41.62" viewBox="0 0 35.078 41.62">
  <g id="Group_950" data-name="Group 950" transform="translate(-49.25 -461.13)">
    <circle id="Ellipse_231" data-name="Ellipse 231" cx="4" cy="4" r="4" transform="translate(54.26 483.694)" fill="#fff"/>
    <circle id="Ellipse_232" data-name="Ellipse 232" cx="4.5" cy="4.5" r="4.5" transform="translate(55.26 472.305)" fill="#a81417"/>
    <circle id="Ellipse_233" data-name="Ellipse 233" cx="4" cy="4" r="4" transform="translate(55.76 485.194)" fill="none" stroke="#25272b" stroke-linecap="round" stroke-linejoin="round" stroke-width="1.5"/>
    <g id="Group_933" data-name="Group 933" transform="translate(-941.277 250.244)">
      <line id="Line_279" data-name="Line 279" x2="15.52" transform="translate(1009.334 224.537)" fill="none" stroke="#25272b" stroke-linecap="round" stroke-linejoin="round" stroke-width="1.5"/>
      <line id="Line_280" data-name="Line 280" x2="10.048" transform="translate(1009.334 228.586)" fill="none" stroke="#25272b" stroke-linecap="round" stroke-linejoin="round" stroke-width="1.5"/>
    </g>
    <g id="Group_934" data-name="Group 934" transform="translate(-941.277 250.244)">
      <line id="Line_281" data-name="Line 281" x2="15.52" transform="translate(1009.334 236.925)" fill="none" stroke="#25272b" stroke-linecap="round" stroke-linejoin="round" stroke-width="1.5"/>
      <line id="Line_282" data-name="Line 282" x2="7.405" transform="translate(1009.334 240.974)" fill="none" stroke="#25272b" stroke-linecap="round" stroke-linejoin="round" stroke-width="1.5"/>
    </g>
    <g id="Group_936" data-name="Group 936" transform="translate(-941.277 250.244)">
      <g id="Group_935" data-name="Group 935">
        <path id="Path_392" data-name="Path 392" d="M991.277,219.518v-3.762a4,4,0,0,1,4-4h22a4,4,0,0,1,4,4v4.768" fill="none" stroke="#25272b" stroke-linecap="round" stroke-linejoin="round" stroke-width="1.5"/>
        <path id="Path_393" data-name="Path 393" d="M1021.277,242.41v5.346a4,4,0,0,1-4,4h-22a4,4,0,0,1-4-4V223.734" fill="none" stroke="#25272b" stroke-linecap="round" stroke-linejoin="round" stroke-width="1.5"/>
      </g>
      <path id="Path_394" data-name="Path 394" d="M1014.116,211.756s1.09,6.124,7.161,6.469" fill="none" stroke="#25272b" stroke-linecap="round" stroke-linejoin="round" stroke-width="1.5"/>
    </g>
  </g>
</svg>
