<svg xmlns="http://www.w3.org/2000/svg" width="20.746" height="27.134" viewBox="0 0 10.37 13.567">
  <path id="Path_1051" data-name="Path 1051" d="M7.347,7.15c0,.971,0,1.906,0,2.84q0,1.51,0,3.019c0,.2-.017.39-.221.5-.221.12-.386,0-.553-.124-.931-.7-1.863-1.4-2.811-2.11l-1.123.836q-.871.648-1.741,1.3a.452.452,0,0,1-.509.109.472.472,0,0,1-.234-.492q0-5.482,0-10.964A1.987,1.987,0,0,1,2.229-.006q3.112,0,6.223,0a1.989,1.989,0,0,1,2.071,2.067q.006,2.225,0,4.449c0,.537-.1.639-.628.639Zm-.8,5.218v-.347q0-4.634,0-9.268A2.878,2.878,0,0,1,6.946.793H6.678q-2.185,0-4.369,0A1.2,1.2,0,0,0,.986,2.122q0,4.965,0,9.93c0,.084.008.169.013.29.1-.069.17-.116.238-.167l2.1-1.572c.408-.306.458-.3.875.01C4.97,11.184,5.732,11.754,6.551,12.368ZM9.683,6.34c0-.071.012-.13.012-.189q0-2.077,0-4.155a1.312,1.312,0,0,0-.034-.314,1.172,1.172,0,0,0-2.31.265c-.009,1.429,0,2.858,0,4.287a.664.664,0,0,0,.018.106Z" transform="translate(-0.156 0.007)" fill="#a81417"/>
</svg>
