<svg xmlns="http://www.w3.org/2000/svg" width="500" height="500" viewBox="0 0 21.979 22">
  <g id="whatsapp" transform="translate(0)">
    <path id="Path_998" data-name="Path 998" d="M18.731,3.195a11,11,0,0,0-15.5,0A10.793,10.793,0,0,0,0,10.9V10.9a10.848,10.848,0,0,0,1.339,5.149L.03,22l6.016-1.368A11.012,11.012,0,0,0,10.985,21.8h0a10.96,10.96,0,0,0,7.753-3.192,10.786,10.786,0,0,0-.011-15.418ZM10.989,20.088h0A9.281,9.281,0,0,1,6.574,18.97l-.285-.154-4,.91.869-3.949-.168-.289A9.178,9.178,0,0,1,1.717,10.9a9.269,9.269,0,0,1,15.8-6.49,9.128,9.128,0,0,1,2.742,6.495,9.241,9.241,0,0,1-9.273,9.182Zm0,0" fill="#a81417"/>
    <path id="Path_999" data-name="Path 999" d="M140.9,141.863h-.482a.925.925,0,0,0-.67.313,2.805,2.805,0,0,0-.88,2.09,4.866,4.866,0,0,0,1.026,2.591,10.3,10.3,0,0,0,4.294,3.782c2.123.835,2.556.669,3.016.627a2.538,2.538,0,0,0,1.7-1.191,2.088,2.088,0,0,0,.147-1.191c-.063-.1-.231-.167-.482-.292s-1.483-.742-1.714-.825-.4-.125-.566.126-.661.83-.808,1-.293.188-.545.063a6.951,6.951,0,0,1-2.013-1.248,7.7,7.7,0,0,1-1.413-1.762c-.147-.251-.016-.386.11-.511s.266-.266.391-.412a1.694,1.694,0,0,0,.245-.418.46.46,0,0,0-.021-.439c-.063-.125-.545-1.364-.769-1.86h0C141.276,141.885,141.078,141.87,140.9,141.863Zm0,0" transform="translate(-132.9 -135.767)" fill="#a81417"/>
  </g>
</svg>
