<svg xmlns="http://www.w3.org/2000/svg" width="43.061" height="41.104" viewBox="0 0 43.061 41.104">
  <g id="Group_1020" data-name="Group 1020" transform="translate(-45.25 -591.25)">
    <circle id="Ellipse_234" data-name="Ellipse 234" cx="7.688" cy="7.688" r="7.688" transform="translate(71.184 594.874)" fill="#a81417"/>
    <path id="Path_347" data-name="Path 347" d="M953.851,227.936A18.451,18.451,0,0,1,935.4,246.387" transform="translate(-870.947 382.516)" fill="none" stroke="#a81417" stroke-linecap="round" stroke-linejoin="round" stroke-width="1.5"/>
    <path id="Path_348" data-name="Path 348" d="M927.778,211.127a18.5,18.5,0,0,1,15.047-.088" transform="translate(-870.947 382.516)" fill="none" stroke="#a81417" stroke-linecap="round" stroke-linejoin="round" stroke-width="1.5"/>
    <path id="Path_349" data-name="Path 349" d="M918.224,234.693a18.539,18.539,0,0,1-.662-11.5" transform="translate(-870.947 382.516)" fill="none" stroke="#a81417" stroke-linecap="round" stroke-linejoin="round" stroke-width="1.5"/>
    <circle id="Ellipse_193" data-name="Ellipse 193" cx="7.688" cy="7.688" r="7.688" transform="translate(72.184 592.709)" fill="none" stroke="#a81417" stroke-linecap="round" stroke-linejoin="round" stroke-width="1.5"/>
    <circle id="Ellipse_194" data-name="Ellipse 194" cx="6.505" cy="6.505" r="6.505" transform="translate(47.277 619.344)" fill="#a81417"/>
    <circle id="Ellipse_195" data-name="Ellipse 195" cx="4.305" cy="4.305" r="4.305" transform="translate(46.271 594.483)" fill="none" stroke="#a81417" stroke-linecap="round" stroke-linejoin="round" stroke-width="1.5"/>
    <circle id="Ellipse_196" data-name="Ellipse 196" cx="3" cy="3" r="3" transform="translate(61.354 607.25)" fill="none" stroke="#a81417" stroke-linecap="round" stroke-linejoin="round" stroke-width="1.5"/>
  </g>
</svg>
