<svg xmlns="http://www.w3.org/2000/svg" width="29.922" height="24.03936" viewBox="0 0 49.166 39.5">
  <g id="Group_1026" data-name="Group 1026" transform="translate(-914.422 -507.768)">
    <path id="Path_448" data-name="Path 448" d="M948.793,528.379l-33.31.049-.006-4.45,0-3.29,5.592-.014,36.929-.091.01,7.74-10.952.042" fill="#a81417"/>
    <path id="Path_449" data-name="Path 449" d="M951.661,513.4l2.382,0a4.268,4.268,0,0,1,4.275,4.261l.042,24.711a4.272,4.272,0,0,1-2.354,3.826,2.5,2.5,0,0,1-1.117.258l-27.3.052-8.1.014a4.21,4.21,0,0,1-4.257-3.6,4.623,4.623,0,0,1-.027-.473l-.041-24.7a4.276,4.276,0,0,1,4.268-4.283l27.2-.035" fill="none" stroke="#25272b" stroke-linecap="round" stroke-linejoin="round" stroke-width="1.5"/>
    <path id="Path_450" data-name="Path 450" d="M958.641,541.577l.726,0a2.5,2.5,0,0,0,1.117-.259,4.27,4.27,0,0,0,2.354-3.825l-.042-24.711a4.268,4.268,0,0,0-4.276-4.261l-2.382,0-5.016.024-27.2.036a4.277,4.277,0,0,0-4.269,4.283l0,.264" fill="none" stroke="#25272b" stroke-linecap="round" stroke-linejoin="round" stroke-width="1.5"/>
    <line id="Line_310" data-name="Line 310" y1="0.039" x2="4.005" transform="translate(921.783 539.417)" fill="none" stroke="#25272b" stroke-linecap="round" stroke-linejoin="round" stroke-width="1.5"/>
    <line id="Line_311" data-name="Line 311" y1="0.039" x2="12.722" transform="translate(921.783 535.969)" fill="none" stroke="#25272b" stroke-linecap="round" stroke-linejoin="round" stroke-width="1.5"/>
    <path id="Path_451" data-name="Path 451" d="M946.6,534.822a3.486,3.486,0,1,1,.1,5.85" fill="none" stroke="#25272b" stroke-linecap="round" stroke-linejoin="round" stroke-width="1.5"/>
    <path id="Path_452" data-name="Path 452" d="M948.036,537.713a3.485,3.485,0,1,1-1.6-2.932A3.486,3.486,0,0,1,948.036,537.713Z" fill="none" stroke="#25272b" stroke-linecap="round" stroke-linejoin="round" stroke-width="1.5"/>
  </g>
</svg>
