<svg xmlns="http://www.w3.org/2000/svg" width="500" height="500" viewBox="0 0 26 18">
  <g id="Group_1230" data-name="Group 1230" transform="translate(-1052.095 -293.303)">
    <path id="Path_556" data-name="Path 556" d="M1072.1,299.039l3.851-1.685c.519-.336,1.142.121,1.142.838v8.222c0,.717-.622,1.175-1.142.839l-3.851-1.685" fill="none" stroke="#a81417" stroke-linecap="round" stroke-linejoin="round" stroke-width="2"/>
    <path id="Path_557" data-name="Path 557" d="M1072.1,306.4a3.841,3.841,0,0,1-3.78,3.9h-11.448a3.841,3.841,0,0,1-3.779-3.9v-8.2a3.842,3.842,0,0,1,3.779-3.9h11.448a3.842,3.842,0,0,1,3.78,3.9Z" fill="none" stroke="#a81417" stroke-linecap="round" stroke-linejoin="round" stroke-width="2"/>
    <path id="Path_558" data-name="Path 558" d="M1060.562,298.758h-3m3,0" fill="none" stroke="#a81417" stroke-linecap="round" stroke-linejoin="round" stroke-width="2"/>
    <path id="Path_559" data-name="Path 559" d="M1059.452,299.32" fill="none" stroke="#a81417" stroke-linecap="round" stroke-linejoin="round" stroke-width="2"/>
  </g>
</svg>
