<svg xmlns="http://www.w3.org/2000/svg" xmlns:xlink="http://www.w3.org/1999/xlink" width="926" height="428" viewBox="0 0 926 428">
  <defs>
    <clipPath id="clip-iPhone_12_Pro_Max_1">
      <rect width="926" height="428"/>
    </clipPath>
  </defs>
  <g id="iPhone_12_Pro_Max_1" data-name="iPhone 12 Pro Max – 1" clip-path="url(#clip-iPhone_12_Pro_Max_1)">
    <rect width="926" height="428" fill="#fff"/>
    <g id="Group_1018" data-name="Group 1018" transform="translate(74.643 -100.248)">
      <g id="Group_1017" data-name="Group 1017" transform="translate(-89 -116.331)">
        <path id="Path_203" data-name="Path 203" d="M834.514,146C715.831,159.442,655.657,66.675,575.6,64.058c-78.5-2.568-123.9,65.786-96.035,175.974,31.669,125.216-27.813,188.859-22.292,290.842,2.327,42.893,45.124,103.851,98.2,98.018,69.71-7.655,97.913-87.8,159.507-143.022,55.283-49.557,151.537-83.922,209.5-120.067,56.8-35.418,123.878-61.2,129.167-137.366C1057.156,177.994,1012.461,125.836,834.514,146Z" transform="translate(-101.681 -50.967)" fill="#eef2fb" opacity="0.6" style="mix-blend-mode: multiply;isolation: isolate"/>
        <path id="Path_204" data-name="Path 204" d="M1063.114,374.49C1024.269,438.165,948,412.149,883.561,406.462c-126.346-11.15-212.012,156.613-344.671,69.909-146.876-96-147.672-270.449-1.605-337.48C946.018-48.664,1098.373,316.677,1063.114,374.49Z" transform="translate(-428.232 -85.821)" fill="#eff3fc" style="mix-blend-mode: multiply;isolation: isolate"/>
      </g>
      <g id="Group_826" data-name="Group 826" transform="matrix(0.914, -0.407, 0.407, 0.914, 200.922, 283.624)">
        <path id="Path_231" data-name="Path 231" d="M32.19,12.874c0,7.109-7.2,12.872-16.092,12.87S0,19.977,0,12.868,7.2,0,16.092,0,32.188,5.767,32.19,12.874Z" transform="translate(0 9.044)" fill="#e7ecf9"/>
        <path id="Path_232" data-name="Path 232" d="M17.1,6.941c0,3.831-3.827,6.938-8.548,6.937S0,10.769,0,6.937,3.827,0,8.55,0,17.1,3.109,17.1,6.941Z" transform="translate(44.057 0)" fill="#e7ecf9"/>
      </g>
    </g>
  </g>
</svg>
