<svg xmlns="http://www.w3.org/2000/svg" width="20.746" height="27.134" viewBox="0 0 10.373 13.567">
  <g id="Group_2122" data-name="Group 2122" transform="translate(0 0)">
    <path id="Path_1049" data-name="Path 1049" d="M2.111-.392A1.989,1.989,0,0,0,.062,1.644c0,.539,0,1.077,0,1.616q0,4.689,0,9.377a.477.477,0,0,0,.233.494.451.451,0,0,0,.51-.108c.3-.228.609-.454.913-.68l1.954-1.456.881.661q.984.739,1.968,1.48a.438.438,0,0,0,.509.1.458.458,0,0,0,.223-.473c0-.079,0-.159,0-.238q0-5.6,0-11.2a2.408,2.408,0,0,1,.412-1.6C5.766-.393,3.938-.395,2.111-.392Z" transform="translate(-0.06 0.394)" fill="#a81417"/>
    <path id="Path_1050" data-name="Path 1050" d="M153.134,3.573c0-.909.01-1.817,0-2.726a1.191,1.191,0,1,0-2.38.021q-.008,2.713,0,5.425c0,.389.124.517.5.52q.675.007,1.349,0c.41,0,.536-.132.538-.542,0-.9,0-1.8,0-2.7Z" transform="translate(-142.765 0.368)" fill="#a81417"/>
  </g>
</svg>
