<svg xmlns="http://www.w3.org/2000/svg" width="500" height="500" viewBox="0 0 17.5 17.5">
  <g id="Group_1162" data-name="Group 1162" transform="translate(-2704.532 -1636.583)">
    <path id="Path_516" data-name="Path 516" d="M2711.982,1642.2a1.287,1.287,0,0,1,.361-.922,1.189,1.189,0,0,1,.9-.379,1.327,1.327,0,0,1,.945.379,1.251,1.251,0,0,1,0,1.832,1.308,1.308,0,0,1-.945.389,1.174,1.174,0,0,1-.9-.389A1.3,1.3,0,0,1,2711.982,1642.2Z" fill="#25272b"/>
    <line id="Line_352" data-name="Line 352" y2="4.271" transform="translate(2713.282 1645.499)" fill="none" stroke="#25272b" stroke-linecap="round" stroke-linejoin="round" stroke-width="1.5"/>
    <circle id="Ellipse_257" data-name="Ellipse 257" cx="8" cy="8" r="8" transform="translate(2705.282 1637.333)" fill="none" stroke="#25272b" stroke-linecap="round" stroke-linejoin="round" stroke-width="1.5"/>
  </g>
</svg>
