<svg xmlns="http://www.w3.org/2000/svg" width="73.122" height="24" viewBox="0 0 73.122 24">
  <g id="Group_840" data-name="Group 840" transform="translate(-381.327 -551.587)">
    <path id="Path_273" data-name="Path 273" d="M395.062,560.053h3.95c.059,0,.119,0,.178,0,.117-.008.166.052.178.162.025.227.065.451.081.678a9.812,9.812,0,0,1-.6,4.246,7.552,7.552,0,0,1-2.222,3.06,8.189,8.189,0,0,1-4.238,1.9,9.415,9.415,0,0,1-5.188-.592,9.137,9.137,0,0,1-5.779-7.4,8.768,8.768,0,0,1,2.125-7.154,9.4,9.4,0,0,1,8.2-3.307,8.74,8.74,0,0,1,4.391,1.667,9.517,9.517,0,0,1,.859.708c.092.085.111.15.013.249-.52.53-1.034,1.066-1.554,1.6-.107.11-.114.1-.265-.032a6.476,6.476,0,0,0-4.719-1.666,6.645,6.645,0,0,0-6.246,5.453,6.741,6.741,0,0,0,1.36,5.551,6.334,6.334,0,0,0,3.851,2.341,6.835,6.835,0,0,0,4.044-.364,5.294,5.294,0,0,0,2.7-2.346,5.937,5.937,0,0,0,.635-2.018c.023-.153.012-.163-.166-.165q-.759-.006-1.519-.006h-4c-.068,0-.136,0-.2,0-.116.005-.166-.04-.166-.163q.006-1.115,0-2.228c0-.121.047-.165.165-.162.211.005.422,0,.633,0Z" fill="#4486f4"/>
    <path id="Path_274" data-name="Path 274" d="M435.38,559.535c.075-.067.048-.148.049-.22,0-.185.005-.371,0-.557,0-.11.025-.172.154-.172.734,0,1.468,0,2.2,0,.105,0,.158.041.155.148,0,.059,0,.118,0,.177q0,5.1,0,10.2a8.939,8.939,0,0,1-.362,2.773,4.989,4.989,0,0,1-4.192,3.6,6.164,6.164,0,0,1-2.783-.132,5.608,5.608,0,0,1-2.974-2.079,5.535,5.535,0,0,1-.633-1.063c-.079-.175-.079-.18.1-.257q.969-.406,1.939-.807c.174-.071.179-.068.263.1a3.55,3.55,0,0,0,1.256,1.458,3.076,3.076,0,0,0,1.976.483,3.281,3.281,0,0,0,1.446-.413,2.856,2.856,0,0,0,1.307-1.851,7.5,7.5,0,0,0,.144-1.938c0-.04.007-.094-.038-.112-.086-.036-.116.048-.158.092a3.963,3.963,0,0,1-2.43,1.187,5.032,5.032,0,0,1-3.065-.558,6.058,6.058,0,0,1-1.891-9.264,5.615,5.615,0,0,1,3.081-1.966,4.572,4.572,0,0,1,3.674.536,3.276,3.276,0,0,1,.589.476C435.247,559.443,435.291,559.52,435.38,559.535Zm.224,4.59a3.772,3.772,0,0,0-.267-1.414,3.118,3.118,0,0,0-5.535-.771,3.833,3.833,0,0,0-.7,2.557,3.477,3.477,0,0,0,1.439,2.725,3.076,3.076,0,0,0,4.326-.63A3.894,3.894,0,0,0,435.6,564.125Z" fill="#4486f4"/>
    <path id="Path_275" data-name="Path 275" d="M406.429,558.206a5.947,5.947,0,0,1,5.86,6.621,5.734,5.734,0,0,1-1.426,3.342,6.116,6.116,0,0,1-9.74-.864,6.089,6.089,0,0,1,.95-7.414,5.9,5.9,0,0,1,3.339-1.614C405.714,558.234,406.017,558.229,406.429,558.206Zm3.25,5.87a3.727,3.727,0,0,0-.329-1.483,3.311,3.311,0,0,0-5.549-.859,3.938,3.938,0,0,0-.266,4.584,3.28,3.28,0,0,0,5.356.25A3.782,3.782,0,0,0,409.679,564.076Z" fill="#ea4537"/>
    <path id="Path_276" data-name="Path 276" d="M419.374,570.2a5.843,5.843,0,0,1-5.479-3.459,6.067,6.067,0,0,1,1.251-6.852,5.793,5.793,0,0,1,3.391-1.612,6,6,0,0,1,4.247.964,5.725,5.725,0,0,1,2.574,4.386,5.937,5.937,0,0,1-5.4,6.552c-.1.011-.2.017-.3.021S419.466,570.2,419.374,570.2Zm3.371-5.993a3.781,3.781,0,0,0-.561-2.046,3.3,3.3,0,0,0-5.435-.273,3.937,3.937,0,0,0-.069,4.55,3.281,3.281,0,0,0,5.072.373A3.632,3.632,0,0,0,422.745,564.2Z" fill="#fbbd07"/>
    <path id="Path_277" data-name="Path 277" d="M449.03,570.2a5.544,5.544,0,0,1-4.146-2.029,5.863,5.863,0,0,1-1.387-3.6,6.286,6.286,0,0,1,.9-3.757,5.258,5.258,0,0,1,4.342-2.587,5.1,5.1,0,0,1,4.616,2.235,8.6,8.6,0,0,1,1.062,2.092c.058.152.052.156-.15.24q-1.989.825-3.977,1.646-1.788.741-3.579,1.48c-.031.013-.061.029-.093.039-.119.039-.132.107-.073.212a2.939,2.939,0,0,0,2.008,1.57,3.376,3.376,0,0,0,3.636-1.412c.112-.159.114-.162.276-.055q.876.579,1.751,1.161c.156.1.159.11.054.249A6.127,6.127,0,0,1,449.03,570.2Zm-3-6.191c.094-.032.149-.048.2-.07l4.809-2c.37-.154.379-.178.132-.5a2.34,2.34,0,0,0-1.647-.883,3.187,3.187,0,0,0-3.111,1.708A3.515,3.515,0,0,0,446.032,564.009Z" fill="#ea4537"/>
    <path id="Path_278" data-name="Path 278" d="M439.684,561.022v-8.507c0-.327-.031-.306.294-.3.709,0,1.418,0,2.127.005.211,0,.211,0,.215.207,0,.042,0,.084,0,.126q0,8.483,0,16.964c0,.354.056.325-.322.326h-2c-.059,0-.118,0-.177,0-.092,0-.143-.03-.137-.131,0-.067,0-.135,0-.2Z" fill="#36a954"/>
  </g>
</svg>
