<svg xmlns="http://www.w3.org/2000/svg" width="92.178" height="18" viewBox="0 0 92.178 18">
  <g id="Group_833" data-name="Group 833" transform="translate(-209.911 -247)">
    <path id="Path_237" data-name="Path 237" d="M260.586,252.982a3.857,3.857,0,0,0-3.6,1.49v-.378h0V247l-3.669.444v17.3h3.669v-1.027a6.778,6.778,0,0,0,1.539.98,4.471,4.471,0,0,0,5.942-2.717,9.538,9.538,0,0,0,.14-5.57A4.285,4.285,0,0,0,260.586,252.982Zm.548,7.491a1.888,1.888,0,0,1-2.147,1.654,2.534,2.534,0,0,1-.732-.162,2.5,2.5,0,0,1-1.207-1.858h0a8.175,8.175,0,0,1,.273-3.309,1.888,1.888,0,0,1,1.7-.975,1.866,1.866,0,0,1,2.1,1.633A10.618,10.618,0,0,1,261.134,260.473Z" fill="#4767aa"/>
    <path id="Path_238" data-name="Path 238" d="M273.587,253.2a7.333,7.333,0,0,0-3.834,0,4.619,4.619,0,0,0-3.593,3.629,12.35,12.35,0,0,0-.21,3.231,4.939,4.939,0,0,0,4.008,4.744l.1.022h0l.018,0c.09.018.181.035.272.049l.091.008h0c.114.021.251.036.4.048a7.36,7.36,0,0,0,1.538.026h.007l.075,0a5.029,5.029,0,0,0,4.815-4.012,8.718,8.718,0,0,0,.01-3.877A4.817,4.817,0,0,0,273.587,253.2Zm.155,7.091c-.012.076-.025.152-.042.227a2.075,2.075,0,0,1-4.086-.217,14.042,14.042,0,0,1-.017-2.486,2.091,2.091,0,0,1,4.109-.436A11.213,11.213,0,0,1,273.742,260.287Z" fill="#4767aa"/>
    <path id="Path_239" data-name="Path 239" d="M218.516,253.135H215.9v-1.741c.191-1.646,2.91-1.334,2.91-1.334v-2.829h0c-.093-.022-5.408-1.284-6.464,2.762v0l-.007.026a20.425,20.425,0,0,0-.152,3.113h-2.27v3.1h2.41v8.425h3.51v-8.425h2.685l.3-3.1Z" fill="#4767aa"/>
    <path id="Path_240" data-name="Path 240" d="M226.886,254.617c-.043-.048-.086-.094-.122-.132h0l-.017-.017-.087-.089h0a3.624,3.624,0,0,0-1.785-1.24,4.481,4.481,0,0,0-5.681,3.075,9.921,9.921,0,0,0-.2,4.681,4.52,4.52,0,0,0,5.783,3.949,3.465,3.465,0,0,0,2-1.394,1.156,1.156,0,0,0,.113-.184v1.485h3.424v-11.6h-3.424v1.469Zm-.3,5.839a1.857,1.857,0,0,1-2.009,1.677,1.943,1.943,0,0,1-1.975-1.613,10.046,10.046,0,0,1,.074-3.279,1.848,1.848,0,0,1,2-1.416,1.82,1.82,0,0,1,1.9,1.666A13.863,13.863,0,0,1,226.585,260.456Z" fill="#4767aa"/>
    <path id="Path_241" data-name="Path 241" d="M240.767,263.92c-.159-.582-.34-1.155-.515-1.708l-.165-.616s-4.291,2.06-4.96-1.854a8.426,8.426,0,0,1,.046-1.951,2.1,2.1,0,0,1,2.068-1.958,4.653,4.653,0,0,1,1.2.048c.532.09,1.051.25,1.633.393.2-.619.409-1.231.6-1.848.03-.1.055-.18.075-.254h0l.1-.371a.438.438,0,0,0-.161-.15h0a1.932,1.932,0,0,0-.529-.248c-.105-.038-.21-.072-.316-.105s-.156-.048-.156-.048h0a9.03,9.03,0,0,0-3.461-.223,4.912,4.912,0,0,0-4.626,4.138,9.4,9.4,0,0,0,.047,3.83,4.654,4.654,0,0,0,3.458,3.692,8.51,8.51,0,0,0,3.735.182,11.733,11.733,0,0,0,1.821-.549l.207-.072-.1-.33Z" fill="#4767aa"/>
    <path id="Path_242" data-name="Path 242" d="M252.063,259.38a19.53,19.53,0,0,0-.119-2.4,4.291,4.291,0,0,0-3.762-3.892,9.725,9.725,0,0,0-2.5-.039,4.563,4.563,0,0,0-4.331,3.744,13.467,13.467,0,0,0-.068,3.943,4.252,4.252,0,0,0,2.844,3.776h0l.022,0h0a11.085,11.085,0,0,0,7.628-.44l-.13-.474h0c-.15-.633-.329-1.26-.5-1.887l-.018-.062s-.067.024-.186.062h-.009c-.14.037-.279.08-.418.126-.025.009-.051.017-.076.024a13.747,13.747,0,0,1-1.922.4,10.108,10.108,0,0,1-1.874.011,1.842,1.842,0,0,1-1.769-2.014h6.749s.431-.006.449-.01c0,0,0-.114,0-.128Zm-3.3-1.582H244.8a2.138,2.138,0,0,1,.82-1.967,2.19,2.19,0,0,1,2.332-.067C248.725,256.191,248.786,256.963,248.763,257.8Z" fill="#4767aa"/>
    <path id="Path_243" data-name="Path 243" d="M302.089,253.269H298.2l-3.38,5.284V247.011l-3.669.445v17.3h3.669v-5.293l3.38,5.3h3.891L298.421,259Z" fill="#4767aa"/>
    <path id="Path_244" data-name="Path 244" d="M286.1,253.194a7.337,7.337,0,0,0-3.835,0,4.619,4.619,0,0,0-3.592,3.629,12.308,12.308,0,0,0-.209,3.231,4.936,4.936,0,0,0,4.007,4.744c.033.008.068.014.1.021h0l.016,0c.091.018.182.035.273.048l.092.008h0a3.91,3.91,0,0,0,.395.048,7.358,7.358,0,0,0,1.538.026h.007l.075,0a5.032,5.032,0,0,0,4.816-4.012,8.748,8.748,0,0,0,.01-3.877A4.821,4.821,0,0,0,286.1,253.194Zm.155,7.091c-.012.076-.025.151-.042.227a2.075,2.075,0,0,1-4.086-.218,14.031,14.031,0,0,1-.018-2.485,2.091,2.091,0,0,1,4.109-.436A11.226,11.226,0,0,1,286.254,260.285Z" fill="#4767aa"/>
  </g>
</svg>
