<svg id="Group_1532" data-name="Group 1532" xmlns="http://www.w3.org/2000/svg" xmlns:xlink="http://www.w3.org/1999/xlink" width="72.228" height="201.39" viewBox="0 0 72.228 201.39">
  <defs>
    <linearGradient id="linear-gradient" y1="0.5" x2="1" y2="0.5" gradientUnits="objectBoundingBox">
      <stop offset="0" stop-color="#eda826"/>
      <stop offset="0.328" stop-color="#eeae2c"/>
      <stop offset="0.77" stop-color="#f2bf3d"/>
      <stop offset="1" stop-color="#f6cb49"/>
    </linearGradient>
    <linearGradient id="linear-gradient-3" y1="0.5" x2="1" y2="0.5" gradientUnits="objectBoundingBox">
      <stop offset="0" stop-color="#f2ba38"/>
      <stop offset="1" stop-color="#eda826"/>
    </linearGradient>
  </defs>
  <g id="Group_1531" data-name="Group 1531" style="isolation: isolate">
    <g id="Group_1525" data-name="Group 1525" transform="translate(36.111 22.117)">
      <path id="Path_746" data-name="Path 746" d="M149.118,324.123,113,503.4h0l18.636-163.236Z" transform="translate(-113.001 -324.123)" fill="url(#linear-gradient)"/>
    </g>
    <g id="Group_1526" data-name="Group 1526" transform="translate(0 22.117)">
      <path id="Path_747" data-name="Path 747" d="M114.974,340.161,133.624,503.4h0L97.513,324.123Z" transform="translate(-97.513 -324.123)" fill="url(#linear-gradient)"/>
    </g>
    <g id="Group_1527" data-name="Group 1527" transform="translate(11.949 50.809)">
      <path id="Path_748" data-name="Path 748" d="M126.794,336.43l.006,150.582h0L102.638,348.292Z" transform="translate(-102.638 -336.43)" fill="url(#linear-gradient-3)"/>
    </g>
    <g id="Group_1528" data-name="Group 1528" transform="translate(36.105 50.809)">
      <path id="Path_749" data-name="Path 749" d="M137.157,348.292,113,487.011h0L113,336.43Z" transform="translate(-112.999 -336.43)" fill="url(#linear-gradient-3)"/>
    </g>
    <g id="Group_1529" data-name="Group 1529">
      <path id="Path_750" data-name="Path 750" d="M133.618,314.637,144.71,333.57l25.03,3.183-17.48,16.038,5.515,24.516-24.158-11.862-24.157,11.862,5.513-24.516L97.513,336.753l25.026-3.183Z" transform="translate(-97.513 -314.637)" fill="#ffe029"/>
    </g>
  </g>
</svg>
