<svg xmlns="http://www.w3.org/2000/svg" width="500" height="500" viewBox="0 0 23.721 14.781">
  <g id="knowledge" transform="translate(-4.419 0.55)">
    <path id="Path_1048" data-name="Path 1048" d="M56.773,12.377l.185.124c.072.048,1.822,1.18,6.338,1.18s6.266-1.132,6.338-1.18l.185-.124V5.366l2.5-.833V8.464a1.529,1.529,0,0,0-1.11,1.469v2.082h3.054V9.933a1.529,1.529,0,0,0-1.11-1.469V4.255l1.456-.485L70.234,2.312l-.263.79,2,.668L63.3,6.663,54.62,3.77,63.3.878,69.18,2.839l.263-.79L63.3,0,51.986,3.77l4.787,1.6ZM73.429,9.933v1.249H72.041V9.933a.694.694,0,1,1,1.388,0ZM57.606,5.643,63.3,7.54l5.691-1.9v6.263a13.349,13.349,0,0,1-5.691.942,13.351,13.351,0,0,1-5.691-.941Z" transform="translate(-47.017)" fill="#a81417" stroke="#a81417" stroke-linecap="round" stroke-linejoin="round" stroke-width="1.1"/>
  </g>
</svg>
