<?xml version="1.0" encoding="utf-8"?>
<!-- Generator: Adobe Illustrator 23.1.0, SVG Export Plug-In . SVG Version: 6.00 Build 0)  -->
<svg version="1.1" id="Layer_1" xmlns="http://www.w3.org/2000/svg" xmlns:xlink="http://www.w3.org/1999/xlink" x="0px" y="0px"
	 viewBox="0 0 222 256" style="enable-background:new 0 0 222 256;" xml:space="preserve">
<style type="text/css">
	.st0{fill:#A81417;}
</style>
<path class="st0" d="M180.5,173c-12.2,0-23.1,5.3-30.7,13.6l-69.9-44.4c2-4.8,3.1-10.1,3.1-15.7c0-5.2-1-10.2-2.8-14.9l68.5-43.5
	c7.6,9.1,19,14.9,31.8,14.9c22.9,0,41.5-18.6,41.5-41.5S203.4,0,180.5,0S139,18.6,139,41.5c0,5.1,0.9,10,2.6,14.5L73.1,99.6
	C65.5,90.7,54.1,85,41.5,85C18.6,85,0,103.6,0,126.5S18.6,168,41.5,168c12.3,0,23.4-5.4,31-13.9l69.8,44.3
	c-2.1,4.9-3.2,10.4-3.2,16.1c0,22.9,18.6,41.5,41.5,41.5s41.5-18.6,41.5-41.5S203.4,173,180.5,173z M180.5,14
	c15.2,0,27.5,12.3,27.5,27.5S195.7,69,180.5,69S153,56.7,153,41.5S165.3,14,180.5,14z M41.5,154C26.3,154,14,141.7,14,126.5
	S26.3,99,41.5,99S69,111.3,69,126.5S56.7,154,41.5,154z M180.5,242c-15.2,0-27.5-12.3-27.5-27.5s12.3-27.5,27.5-27.5
	s27.5,12.3,27.5,27.5S195.7,242,180.5,242z"/>
</svg>
