<svg xmlns="http://www.w3.org/2000/svg" width="500" height="500" viewBox="0 0 28 28.233">
  <g id="Group_899" data-name="Group 899" transform="translate(-759.73 -591.222)">
    <path id="Path_371" data-name="Path 371" d="M765.73,618.455H764.7a4,4,0,0,1-3.968-4.039V596.511a4,4,0,0,1,3.964-4.039l13.83-.013A4,4,0,0,1,782.5,596.5v4.593" fill="none" stroke="#b8c1d4" stroke-linecap="round" stroke-linejoin="round" stroke-width="2"/>
    <path id="Path_372" data-name="Path 372" d="M777.307,592.455l-.423,1.506a2.356,2.356,0,0,0,1.369,2.878l4.243,1.478" fill="none" stroke="#b8c1d4" stroke-linecap="round" stroke-linejoin="round" stroke-width="2"/>
    <g id="Group_898" data-name="Group 898">
      <path id="Path_373" data-name="Path 373" d="M772.96,602.771a3.992,3.992,0,1,1-4.508-4.508" fill="none" stroke="#b8c1d4" stroke-linecap="round" stroke-linejoin="round" stroke-width="2"/>
      <path id="Path_374" data-name="Path 374" d="M769.295,601.75v-4.932a5.526,5.526,0,0,1,4.932,4.932Z" fill="none" stroke="#b8c1d4" stroke-linecap="round" stroke-linejoin="round" stroke-width="2"/>
    </g>
    <rect id="Rectangle_295" data-name="Rectangle 295" width="3.523" height="9.877" rx="1.761" transform="translate(776.559 608.578)" fill="none" stroke="#b8c1d4" stroke-linecap="round" stroke-linejoin="round" stroke-width="2"/>
    <rect id="Rectangle_296" data-name="Rectangle 296" width="3.523" height="12.998" rx="1.761" transform="translate(783.207 605.457)" fill="none" stroke="#b8c1d4" stroke-linecap="round" stroke-linejoin="round" stroke-width="2"/>
    <rect id="Rectangle_297" data-name="Rectangle 297" width="3.523" height="6.433" rx="1.761" transform="translate(769.91 612.022)" fill="none" stroke="#b8c1d4" stroke-linecap="round" stroke-linejoin="round" stroke-width="2"/>
  </g>
</svg>
