<svg xmlns="http://www.w3.org/2000/svg" width="29.922" height="32.264" viewBox="0 0 29.922 32.264">
  <g id="Group_2064" data-name="Group 2064" transform="translate(62 -323)">
    <g id="Group_2063" data-name="Group 2063" transform="translate(-62 323)">
      <path id="Combined-Shape" d="M78.629,40C85.849,40,91.7,44.847,91.7,50.826s-5.853,9.619-13.074,9.619q-10.676-.216-14.892-6.962Q66.014,40.692,78.629,40Zm-.487,6.735q-6.227.63-7.622,5.929,1.9,1.675,7.622,1.859c3.833-.06,6.155-1.178,6.2-3.775C84.1,47.879,81.313,46.627,78.142,46.735Z" transform="translate(-63.157 -40)" fill="#332c3d" fill-rule="evenodd"/>
      <path id="Path_957" data-name="Path 957" d="M56.035,258a14.662,14.662,0,0,0,14.12,9.564c5.035,0,8.373-2.179,10.124-5.468l5.643,3.535c-1.967,4.812-7.8,8.3-14.687,8.3-8.5,0-15.785-5.731-15.2-15.7Q56.032,258.117,56.035,258Z" transform="translate(-56 -241.667)" fill="#00c252" fill-rule="evenodd"/>
    </g>
  </g>
</svg>
