<svg xmlns="http://www.w3.org/2000/svg" xmlns:xlink="http://www.w3.org/1999/xlink" width="172.319" height="176.086" viewBox="0 0 172.319 176.086">
  <defs>
    <filter id="Path_229" x="0" y="0" width="172.319" height="176.086" filterUnits="userSpaceOnUse">
      <feOffset dx="3" dy="6" input="SourceAlpha"/>
      <feGaussianBlur stdDeviation="10" result="blur"/>
      <feFlood flood-color="#25272b" flood-opacity="0.149"/>
      <feComposite operator="in" in2="blur"/>
      <feComposite in="SourceGraphic"/>
    </filter>
  </defs>
  <g id="Component_1_1" data-name="Component 1 – 1" transform="translate(27 24)">
    <g transform="matrix(1, 0, 0, 1, -27, -24)" filter="url(#Path_229)">
      <path id="Path_229-2" data-name="Path 229" d="M116.086,74.4a34.5,34.5,0,0,0-.466-5.648l.011.021S111.559,37.2,85.756,11.848l.01.018a38.319,38.319,0,0,0-55.429-.018C4.611,37.126.487,68.582.464,68.767A34.437,34.437,0,0,0,0,74.4C0,90.024,10.508,103.3,25.127,108.1c0,0,23.187,8.507,60.432,1.348h0C102.919,106.438,116.086,91.889,116.086,74.4Z" transform="translate(139.32 24) rotate(90)" fill="#fff"/>
    </g>
    <g id="Group_836" data-name="Group 836" transform="translate(28.342 33.049)">
      <path id="Path_255" data-name="Path 255" d="M556.078,371.7a18.686,18.686,0,0,1,3.839-.386,17.827,17.827,0,0,1,13.42,29.593,12.011,12.011,0,0,0-2.856,6.1,14.16,14.16,0,0,0-.15,1.586v1.486H549.5v-1.486a9.476,9.476,0,0,0-.15-1.586,11.319,11.319,0,0,0-2.8-6.009A17.864,17.864,0,0,1,551,373.66" transform="translate(-528.674 -368.306)" fill="#e7ecf9"/>
      <path id="Path_256" data-name="Path 256" d="M560.793,399.159a7.44,7.44,0,1,1-14.878,0,1.474,1.474,0,0,1,1.488-1.487h11.9A1.474,1.474,0,0,1,560.793,399.159Z" transform="translate(-526.461 -353.185)" fill="#a81417"/>
      <path id="Path_257" data-name="Path 257" d="M564.855,394.035v1.487a4.457,4.457,0,0,1-4.464,4.462h-11.9a4.457,4.457,0,0,1-4.464-4.462v-1.487" transform="translate(-527.547 -355.271)" fill="none" stroke="#25272b" stroke-linecap="round" stroke-linejoin="round" stroke-width="1.5"/>
      <path id="Path_258" data-name="Path 258" d="M553.317,369.791a18.683,18.683,0,0,1,3.839-.387A17.828,17.828,0,0,1,570.575,399a12.008,12.008,0,0,0-2.858,6.1,14.576,14.576,0,0,0-.148,1.586v1.487H546.74V406.68a9.659,9.659,0,0,0-.148-1.586,11.324,11.324,0,0,0-2.8-6.007,17.864,17.864,0,0,1,4.448-27.338" transform="translate(-530.262 -369.404)" fill="none" stroke="#25272b" stroke-linecap="round" stroke-linejoin="round" stroke-width="1.5"/>
      <path id="Path_259" data-name="Path 259" d="M551.087,373.631a10.49,10.49,0,0,1,10.495,10.489" transform="translate(-523.49 -366.979)" fill="none" stroke="#25272b" stroke-linecap="round" stroke-linejoin="round" stroke-width="1.5"/>
      <path id="Path_260" data-name="Path 260" d="M533.56,380.741h3.625" transform="translate(-533.56 -362.899)" fill="none" stroke="#25272b" stroke-linecap="round" stroke-linejoin="round" stroke-width="1.5"/>
      <path id="Path_261" data-name="Path 261" d="M535.492,373.36l2.562,2.561" transform="translate(-532.45 -367.134)" fill="none" stroke="#25272b" stroke-linecap="round" stroke-linejoin="round" stroke-width="1.5"/>
      <path id="Path_262" data-name="Path 262" d="M535.492,389.077l2.562-2.562" transform="translate(-532.45 -359.586)" fill="none" stroke="#25272b" stroke-linecap="round" stroke-linejoin="round" stroke-width="1.5"/>
      <path id="Path_263" data-name="Path 263" d="M568.967,380.741h-3.625" transform="translate(-515.299 -362.899)" fill="none" stroke="#25272b" stroke-linecap="round" stroke-linejoin="round" stroke-width="1.5"/>
      <path id="Path_264" data-name="Path 264" d="M566.647,373.36l-2.563,2.561" transform="translate(-516.022 -367.134)" fill="none" stroke="#25272b" stroke-linecap="round" stroke-linejoin="round" stroke-width="1.5"/>
      <path id="Path_265" data-name="Path 265" d="M566.647,389.077l-2.563-2.562" transform="translate(-516.022 -359.586)" fill="none" stroke="#25272b" stroke-linecap="round" stroke-linejoin="round" stroke-width="1.5"/>
    </g>
  </g>
</svg>
