<svg xmlns="http://www.w3.org/2000/svg" width="500" height="500" viewBox="0 0 20.333 24">
  <g id="Group_1787" data-name="Group 1787" transform="translate(-715.21 -360.308)">
    <path id="Path_828" data-name="Path 828" d="M734.543,381.387a2.014,2.014,0,0,1-2.093,1.921H718.3a2.014,2.014,0,0,1-2.092-1.921V370.3a.5.5,0,0,1,.523-.48H734.02a.5.5,0,0,1,.523.48Z" fill="#a81417" stroke="#a81417" stroke-linecap="round" stroke-linejoin="round" stroke-width="2"/>
    <path id="Path_829" data-name="Path 829" d="M726.578,376.666l.321,2.725a.466.466,0,0,1-.127.373.52.52,0,0,1-.379.16h-2.034a.52.52,0,0,1-.378-.16.462.462,0,0,1-.127-.373l.321-2.725a1.869,1.869,0,0,1-.832-1.545,2.037,2.037,0,0,1,4.067,0A1.869,1.869,0,0,1,726.578,376.666Z" fill="#fff" stroke="#fff" stroke-linecap="round" stroke-linejoin="round" stroke-width="0.5"/>
    <path id="Path_830" data-name="Path 830" d="M719.771,369.48v-2.567a5.605,5.605,0,0,1,11.211,0v2.567" fill="none" stroke="#a81417" stroke-linecap="round" stroke-linejoin="round" stroke-width="2"/>
  </g>
</svg>
