<svg xmlns="http://www.w3.org/2000/svg" width="500" height="500" viewBox="0 0 29.404 29.999">
  <g id="Group_945" data-name="Group 945" transform="translate(-757.821 -440.473)">
    <path id="Stroke_1" data-name="Stroke 1" d="M786.225,457.9A5.148,5.148,0,0,1,781,462.967H758.821V446.541a5.143,5.143,0,0,1,5.219-5.067H781a5.146,5.146,0,0,1,5.222,5.067Z" transform="translate(0)" fill="none" stroke="#fff" stroke-linecap="round" stroke-linejoin="round" stroke-width="2"/>
    <path id="Stroke_11" data-name="Stroke 11" d="M766.826,456.857l-8.005,6.462v-6.462" transform="translate(0 6.153)" fill="none" stroke="#fff" stroke-linecap="round" stroke-linejoin="round" stroke-width="2"/>
    <g id="Group_916" data-name="Group 916" transform="translate(769.593 446.264)">
      <path id="Path_389" data-name="Path 389" d="M769.76,452.676a5.5,5.5,0,0,1,.108-1.275,1.7,1.7,0,0,1,.57-.825c.041-.039.168-.151.381-.337a5.978,5.978,0,0,0,.532-.51c.14-.154.3-.35.476-.584a2.677,2.677,0,0,0,.407-.78,2.836,2.836,0,0,0,.14-.892,2.337,2.337,0,0,0-.846-1.852,4.031,4.031,0,0,0-4.25-.228,1.526,1.526,0,0,0-.763,1.151" transform="translate(-766.515 -444.895)" fill="none" stroke="#fff" stroke-linecap="round" stroke-linejoin="round" stroke-width="2"/>
      <path id="Path_390" data-name="Path 390" d="M767.754,453.47a1.479,1.479,0,0,1,.413-1.057,1.367,1.367,0,0,1,1.026-.434,1.52,1.52,0,0,1,1.082.434,1.431,1.431,0,0,1,0,2.1,1.492,1.492,0,0,1-1.082.447,1.344,1.344,0,0,1-1.026-.447A1.483,1.483,0,0,1,767.754,453.47Z" transform="translate(-766.019 -442.061)" fill="#fff"/>
    </g>
  </g>
</svg>
