<svg
    xmlns="http://www.w3.org/2000/svg"
    viewBox="0 0 268 268"
    id="vector">
    <path
        id="path"
        d="M 12.5 146.5 L 226.154 146.5 L 167.495 205.161 C 162.613 210.043 162.613 217.957 167.495 222.839 C 172.378 227.72 180.292 227.72 185.173 222.839 L 265.171 142.839 C 270.054 137.957 270.054 130.043 265.171 125.161 L 185.171 45.161 C 182.732 42.722 179.531 41.5 176.332 41.5 C 173.133 41.5 169.935 42.722 167.493 45.161 C 162.611 50.043 162.611 57.957 167.493 62.839 L 226.154 121.5 L 12.5 121.5 C 5.597 121.5 0 127.098 0 134 C 0 140.903 5.597 146.5 12.5 146.5 Z"
        fill="#ffffff"
        stroke-width="1"/>
</svg>
