<svg xmlns="http://www.w3.org/2000/svg" width="38.83" height="24" viewBox="0 0 38.83 24">
  <g id="Group_1036" data-name="Group 1036" transform="translate(-719.375 -135.673)">
    <g id="Group_1035" data-name="Group 1035">
      <rect id="Rectangle_307" data-name="Rectangle 307" width="10.5" height="18.868" transform="translate(733.541 138.239)" fill="#ff5f00"/>
      <path id="Path_457" data-name="Path 457" d="M734.207,147.674a11.982,11.982,0,0,1,4.584-9.435,12,12,0,1,0,0,18.869A11.978,11.978,0,0,1,734.207,147.674Z" fill="#eb001b"/>
      <path id="Path_458" data-name="Path 458" d="M758.205,147.674a12,12,0,0,1-19.414,9.434,12,12,0,0,0,0-18.869,12,12,0,0,1,19.414,9.435Z" fill="#f79e1b"/>
      <path id="Path_459" data-name="Path 459" d="M757.06,155.109v-.386h.156v-.079h-.4v.079h.156v.386Zm.771,0v-.465h-.122l-.14.32-.14-.32h-.122v.465h.086v-.351l.132.3h.089l.131-.3v.352Z" fill="#f79e1b"/>
    </g>
  </g>
</svg>
