<svg xmlns="http://www.w3.org/2000/svg" width="500" height="500" viewBox="0 0 62.21 66">
  <g id="Group_1101" data-name="Group 1101" transform="translate(-850.041 -588.815)">
    <path id="Path_494" data-name="Path 494" d="M859.151,638.471l13.235,11.693a10.582,10.582,0,0,0,7.005,2.651H896.22a3.583,3.583,0,0,0,3.582-3.583v-.859c0-1.92-2.085-3.476-4.005-3.476h0l-4.68-.032h8.422a3.654,3.654,0,0,0,3.654-3.653v-.841a4.441,4.441,0,0,0-4.441-4.44h0l-3.692-.01h7.45a4.244,4.244,0,0,0,4.244-4.244h0a4.556,4.556,0,0,0-4.556-4.556h2.432a4.62,4.62,0,0,0,4.621-4.62h0a4.62,4.62,0,0,0-4.621-4.621H883.74s2.656-2.618,3.037-9.694c.291-5.4-.56-8.3-2.225-9.821a3.758,3.758,0,0,0-6.2,2.882h0a18.147,18.147,0,0,1-4.362,11.777l-.209.266a10.886,10.886,0,0,1-8.565,4.166h-4.529" transform="translate(0 -1)" fill="#fff"/>
    <path id="Path_495" data-name="Path 495" d="M898.9,618.88H885.74s2.656-2.618,3.037-9.694c.291-5.4-.56-8.3-2.225-9.821a3.758,3.758,0,0,0-6.2,2.882h0a18.147,18.147,0,0,1-4.362,11.777l-.209.266a10.886,10.886,0,0,1-8.565,4.166h-4.529" fill="none" stroke="#25272b" stroke-linecap="round" stroke-linejoin="round" stroke-width="2"/>
    <path id="Path_496" data-name="Path 496" d="M861.151,639.471l13.235,11.693a10.582,10.582,0,0,0,7.005,2.651H898.22a3.583,3.583,0,0,0,3.582-3.583v-.859c0-1.92-2.085-3.476-4.005-3.476h0l-4.68-.032h8.422a3.654,3.654,0,0,0,3.654-3.653v-.841a4.441,4.441,0,0,0-4.441-4.44h0l-3.692-.01h7.45a4.244,4.244,0,0,0,4.244-4.244h0a4.556,4.556,0,0,0-4.556-4.556h2.432a4.62,4.62,0,0,0,4.621-4.62h0a4.62,4.62,0,0,0-4.621-4.621h-3.35" fill="none" stroke="#25272b" stroke-linecap="round" stroke-linejoin="round" stroke-width="2"/>
    <line id="Line_338" data-name="Line 338" y1="4.982" transform="translate(883.826 589.815)" fill="none" stroke="#25272b" stroke-linecap="round" stroke-linejoin="round" stroke-width="2"/>
    <line id="Line_339" data-name="Line 339" y1="2.676" x2="2.676" transform="translate(888.664 593.815)" fill="none" stroke="#25272b" stroke-linecap="round" stroke-linejoin="round" stroke-width="2"/>
    <line id="Line_340" data-name="Line 340" x1="2.676" y1="2.676" transform="translate(876.632 593.815)" fill="none" stroke="#25272b" stroke-linecap="round" stroke-linejoin="round" stroke-width="2"/>
    <rect id="Rectangle_311" data-name="Rectangle 311" width="13.444" height="36.692" rx="3" transform="translate(850.041 614.915)" fill="#a81417"/>
    <path id="Path_497" data-name="Path 497" d="M856.762,642.754a2.649,2.649,0,1,0,.123,0C856.844,642.756,856.8,642.754,856.762,642.754Z" fill="#fff"/>
  </g>
</svg>
