<svg xmlns="http://www.w3.org/2000/svg" width="500" height="500" viewBox="0 0 33.122 30.397">
  <g id="Group_949" data-name="Group 949" transform="translate(-872.327 -287.696)">
    <path id="Path_423" data-name="Path 423" d="M883.817,300.37v7.376a.965.965,0,0,0,1.459.83l6.055-3.6a.966.966,0,0,0,.017-1.649l-6.054-3.776A.966.966,0,0,0,883.817,300.37Z" fill="none" stroke="#fff" stroke-linecap="round" stroke-linejoin="round" stroke-width="2"/>
    <g id="Group_948" data-name="Group 948">
      <path id="Path_424" data-name="Path 424" d="M891.5,289.093a8.118,8.118,0,0,0,0,9.462" fill="none" stroke="#fff" stroke-linecap="round" stroke-linejoin="round" stroke-width="2"/>
      <path id="Path_425" data-name="Path 425" d="M902.7,298.555a8.118,8.118,0,0,0,0-9.462" fill="none" stroke="#fff" stroke-linecap="round" stroke-linejoin="round" stroke-width="2"/>
      <path id="Path_426" data-name="Path 426" d="M893.641,290.9a4.479,4.479,0,0,0,0,5.841" fill="none" stroke="#fff" stroke-linecap="round" stroke-linejoin="round" stroke-width="2"/>
      <path id="Path_427" data-name="Path 427" d="M900.565,296.744a4.477,4.477,0,0,0,0-5.841" fill="none" stroke="#fff" stroke-linecap="round" stroke-linejoin="round" stroke-width="2"/>
      <path id="Path_428" data-name="Path 428" d="M897.1,295.272a1.449,1.449,0,1,1,1.4-1.448,1.428,1.428,0,0,1-1.4,1.448Zm0,0" fill="none" stroke="#fff" stroke-linecap="round" stroke-linejoin="round" stroke-width="2"/>
    </g>
    <path id="Path_429" data-name="Path 429" d="M900.2,301.487a13.518,13.518,0,1,1-13.75-11.423" fill="none" stroke="#fff" stroke-linecap="round" stroke-linejoin="round" stroke-width="2"/>
  </g>
</svg>
