<svg xmlns="http://www.w3.org/2000/svg" width="500" height="500" viewBox="0 0 30 30">
  <g id="Group_1170" data-name="Group 1170" transform="translate(-603.827 -148.735)">
    <path id="Path_517" data-name="Path 517" d="M604.827,162.427v11.308a4,4,0,0,0,4,4h20a4,4,0,0,0,4-4V156.376a4,4,0,0,0-4-4h-20a4,4,0,0,0-4,4v1.806" fill="none" stroke="#fff" stroke-linecap="round" stroke-linejoin="round" stroke-width="2"/>
    <path id="Path_518" data-name="Path 518" d="M618.827,155.237" fill="none" stroke="#fff" stroke-linecap="round" stroke-linejoin="round" stroke-width="2"/>
    <g id="Group_1169" data-name="Group 1169">
      <line id="Line_353" data-name="Line 353" y2="5.502" transform="translate(613.265 149.735)" fill="none" stroke="#fff" stroke-linecap="round" stroke-linejoin="round" stroke-width="2"/>
      <line id="Line_354" data-name="Line 354" y2="5.502" transform="translate(624.388 149.735)" fill="none" stroke="#fff" stroke-linecap="round" stroke-linejoin="round" stroke-width="2"/>
    </g>
    <circle id="Ellipse_258" data-name="Ellipse 258" cx="2.059" cy="2.059" r="2.059" transform="translate(609.435 160.25)" fill="none" stroke="#fff" stroke-linecap="round" stroke-linejoin="round" stroke-width="2"/>
    <circle id="Ellipse_259" data-name="Ellipse 259" cx="2.059" cy="2.059" r="2.059" transform="translate(624.101 160.25)" fill="none" stroke="#fff" stroke-linecap="round" stroke-linejoin="round" stroke-width="2"/>
    <circle id="Ellipse_260" data-name="Ellipse 260" cx="2.059" cy="2.059" r="2.059" transform="translate(616.768 160.25)" fill="none" stroke="#fff" stroke-linecap="round" stroke-linejoin="round" stroke-width="2"/>
    <circle id="Ellipse_261" data-name="Ellipse 261" cx="2.059" cy="2.059" r="2.059" transform="translate(609.435 168.133)" fill="none" stroke="#fff" stroke-linecap="round" stroke-linejoin="round" stroke-width="2"/>
    <circle id="Ellipse_262" data-name="Ellipse 262" cx="2.059" cy="2.059" r="2.059" transform="translate(624.101 168.133)" fill="none" stroke="#fff" stroke-linecap="round" stroke-linejoin="round" stroke-width="2"/>
    <circle id="Ellipse_263" data-name="Ellipse 263" cx="2.059" cy="2.059" r="2.059" transform="translate(616.768 168.133)" fill="none" stroke="#fff" stroke-linecap="round" stroke-linejoin="round" stroke-width="2"/>
  </g>
</svg>
