<svg
    xmlns="http://www.w3.org/2000/svg"
    
    viewBox="0 0 268 268"
    id="vector">
    <path
        id="path"
        d="M 256.333 121.916 L 42.679 121.916 L 101.338 63.255 C 106.22 58.373 106.22 50.459 101.338 45.577 C 96.455 40.696 88.541 40.696 83.66 45.577 L 3.662 125.577 C -1.221 130.459 -1.221 138.373 3.662 143.255 L 83.662 223.255 C 86.101 225.694 89.302 226.916 92.501 226.916 C 95.7 226.916 98.898 225.694 101.34 223.255 C 106.222 218.373 106.222 210.459 101.34 205.577 L 42.679 146.916 L 256.333 146.916 C 263.236 146.916 268.833 141.318 268.833 134.416 C 268.833 127.513 263.236 121.916 256.333 121.916 Z"
        fill="#ffffff"/>
</svg>
