<?xml version="1.0" encoding="utf-8"?>
<svg version="1.1" id="Capa_1" xmlns="http://www.w3.org/2000/svg" xmlns:xlink="http://www.w3.org/1999/xlink" x="0px" y="0px"
	 viewBox="0 0 438.8 458.2" style="enable-background:new 0 0 438.8 458.2;" xml:space="preserve">
<g>
	<path d="M436,201.9c-1.5-9.3-10.2-15.6-19.5-14.2s-15.6,10.2-14.2,19.5c0,0.1,0,0.2,0.1,0.3c17.4,102.3-51.5,199.3-153.8,216.7
		c-67.3,11.4-132.3-14.5-173.9-62.6l-0.1,0.1c-2.7-2.6-6.3-4.2-10.3-4.2c-8.1,0-14.7,6.6-14.7,14.7c0,3.5,1.2,6.8,3.3,9.3l-0.1,0.1
		c4.8,5.6,9.9,10.9,15.3,16.1c87.9,83.6,226.9,80.1,310.5-7.8C426.3,339.8,447.5,270.1,436,201.9z"/>
	<path d="M185.6,53.9c62.9-10.7,127,11.3,170.1,58.4l-75.6,25.2c-8.9,3-13.8,12.6-10.8,21.6c3,8.9,12.6,13.8,21.6,10.8l102.4-34.1
		c7-2.3,11.7-8.8,11.7-16.2V17.1C405,7.7,397.4,0,387.9,0s-17.1,7.6-17.1,17.1v62.3C282.9-4.2,143.9-0.7,60.3,87.2
		C12,137.9-7.2,205.7,2,270c0.2,1.6,0.5,3.2,0.8,4.8c0.1,0.5,0.2,0.9,0.3,1.4c0.2,0.9,0.3,1.7,0.5,2.6l0.3-0.1
		c2.3,5.2,7.4,8.8,13.5,8.8c8.1,0,14.7-6.6,14.7-14.7c0-1.1-0.1-2.2-0.4-3.2C14.8,167.7,83.6,71.1,185.6,53.9z"/>
</g>
</svg>