<svg xmlns="http://www.w3.org/2000/svg" width="209.222" height="42" viewBox="0 0 209.222 42">
  <g id="Group_845" data-name="Group 845" transform="translate(-423.348 -137.566)">
    <path id="Path_287" data-name="Path 287" d="M451.443,138.037h-5.651l.964,1.443a.19.19,0,0,0,.158.086l1.91.028a.193.193,0,0,1,.149.313l-1.183,1.5a.191.191,0,0,0-.033.177l.564,1.825a.193.193,0,0,1-.252.238l-1.587-.586.078.125s.615,17.036-4.754,27.279h9.637a4.345,4.345,0,0,0,4.332-4.332V142.369A4.345,4.345,0,0,0,451.443,138.037Z" fill="#25272b"/>
    <path id="Path_288" data-name="Path 288" d="M438.175,163.306c-1.255-.992-5.122,1.086-7.177,2.319a.328.328,0,0,1-.44-.466l4.333-5.926a2.585,2.585,0,0,0,.111-2.887s-4.043-5.141-4.688-6.66.431-1.4.431-1.4,6.152,6.278,13.93,4.232c0,0-2.52.133-3.582-.663,0,0,3.859-2.231,4.778-8.688l-1.333.939a.192.192,0,0,1-.3-.165l.076-1.909a.2.2,0,0,0-.078-.163l-1.529-1.144a.194.194,0,0,1,.063-.341l1.839-.517a.2.2,0,0,0,.131-.124l.582-1.708H427.68a4.346,4.346,0,0,0-4.332,4.332v23.763a4.346,4.346,0,0,0,4.332,4.332h11.787C439.608,169.385,440.079,164.812,438.175,163.306Zm-2.486-12.944c-.987-.285-.734-2.7-.734-2.7S436.675,150.647,435.689,150.362Zm1.437-7.172,3.689.608-.744.788a3.6,3.6,0,0,1,1.094,2.255c.2,1.775-.808,3.345-2.252,3.508s-2.774-1.145-2.974-2.92a3.814,3.814,0,0,1,.166-1.638l-1.578-.295Z" fill="#a81417"/>
    <path id="Path_289" data-name="Path 289" d="M435.689,150.362c.986.285-.734-2.7-.734-2.7S434.7,150.077,435.689,150.362Z" fill="#fff"/>
    <path id="Path_290" data-name="Path 290" d="M445.871,143.169l.228-.162a.2.2,0,0,1,.179-.023l.2.076-.5-.8C445.951,142.57,445.913,142.872,445.871,143.169Z" fill="#fff"/>
    <path id="Path_291" data-name="Path 291" d="M490.954,166.6a16.2,16.2,0,1,1-10.5-28.556,16.126,16.126,0,0,1,10.5,3.872l-4.84,4.791a9.373,9.373,0,0,0-5.663-1.887,9.261,9.261,0,0,0-6.631,2.759,9.371,9.371,0,0,0-2.758,6.679,9.417,9.417,0,0,0,9.389,9.389,9.373,9.373,0,0,0,5.663-1.887Z" fill="#25272b"/>
    <path id="Path_292" data-name="Path 292" d="M518.114,159.217v11.2H512.17V158.806h-.046v-.137a5.777,5.777,0,0,0-5.807-5.762,5.818,5.818,0,0,0-4.116,1.738,5.552,5.552,0,0,0-1.646,4.115v.046h-.045V170.42h-6.4V138.041h6.4v11.8a7.362,7.362,0,0,1,5.761-2.881c6.448-.548,11.843,3.613,11.843,11.707Z" fill="#25272b"/>
    <path id="Path_293" data-name="Path 293" d="M544.878,146.78v23.64h-6.4v-2.652a7.463,7.463,0,0,1-5.945,2.561,11.775,11.775,0,0,1-.137-23.549,7.8,7.8,0,0,1,6.082,2.606V146.78Zm-6.63,11.751a5.631,5.631,0,0,0-1.738-4.115,5.517,5.517,0,0,0-4.069-1.646,5.788,5.788,0,1,0,5.807,5.761Z" fill="#25272b"/>
    <path id="Path_294" data-name="Path 294" d="M570.943,146.78v23.64h-6.4v-2.652a7.463,7.463,0,0,1-5.945,2.561,11.775,11.775,0,0,1-.137-23.549,7.8,7.8,0,0,1,6.082,2.606V146.78Zm-6.63,11.751a5.631,5.631,0,0,0-1.738-4.115,5.517,5.517,0,0,0-4.069-1.646,5.788,5.788,0,1,0,5.807,5.761Z" fill="#25272b"/>
    <path id="Path_295" data-name="Path 295" d="M571.7,179.566h-.137v-6.4h.137a2.658,2.658,0,0,0,2.744-2.744v-23.5h6.4v23.5A9.114,9.114,0,0,1,571.7,179.566Zm9.146-35.621h-6.4v-5.816h6.4Z" fill="#a81417"/>
    <path id="Path_296" data-name="Path 296" d="M607.191,146.78v23.64h-6.4v-2.652a7.463,7.463,0,0,1-5.945,2.561,11.775,11.775,0,0,1-.137-23.549,7.8,7.8,0,0,1,6.082,2.606V146.78Zm-6.63,11.751a5.631,5.631,0,0,0-1.738-4.115,5.517,5.517,0,0,0-4.069-1.646,5.788,5.788,0,1,0,5.807,5.761Z" fill="#a81417"/>
    <path id="Path_297" data-name="Path 297" d="M632.57,158.577a11.752,11.752,0,1,1-11.8-11.706A11.748,11.748,0,0,1,632.57,158.577Zm-5.944.046a5.818,5.818,0,0,0-1.738-4.116,5.93,5.93,0,0,0-4.115-1.646,5.672,5.672,0,0,0-4.07,1.692,5.8,5.8,0,0,0,.046,8.231,5.808,5.808,0,0,0,9.877-4.161Z" fill="#a81417"/>
    <g id="Group_844" data-name="Group 844">
      <path id="Path_298" data-name="Path 298" d="M518.924,139.326a1.734,1.734,0,0,1-1.855,1.753h-1.222v1.641H514.61v-5.154h2.475A1.75,1.75,0,0,1,518.924,139.326Zm-1.11,0a.712.712,0,0,0-.166-.444.7.7,0,0,0-.563-.206h-1.238v1.292h1.222a1.033,1.033,0,0,0,.412-.071.771.771,0,0,0,.182-.135A.724.724,0,0,0,517.814,139.326Z" fill="#a81417"/>
      <path id="Path_299" data-name="Path 299" d="M522.22,142h-1.943l-.373.721h-1.427l2.775-5.154,2.768,5.154h-1.427Zm-.5-.968-.468-.9-.476.9Z" fill="#a81417"/>
      <path id="Path_300" data-name="Path 300" d="M528.29,140.96l1.111,1.76h-1.388l-1.079-1.641h-.586v1.641h-1.237v-5.154h2.466a1.749,1.749,0,0,1,1.839,1.76A1.713,1.713,0,0,1,528.29,140.96Zm-1.942-.992h1.221a.992.992,0,0,0,.4-.071.655.655,0,0,0,.183-.135.722.722,0,0,0,.15-.436.662.662,0,0,0-.166-.444.682.682,0,0,0-.563-.206h-1.229Z" fill="#a81417"/>
      <path id="Path_301" data-name="Path 301" d="M534.694,137.566v5.154h-1.237V140.7H531.9v2.022h-1.237v-5.154H531.9v2.022h1.554v-2.022Z" fill="#a81417"/>
      <path id="Path_302" data-name="Path 302" d="M541.137,140.246a2.657,2.657,0,1,1-2.656-2.656A2.657,2.657,0,0,1,541.137,140.246Zm-1.11,0a1.546,1.546,0,1,0-2.64,1.094,1.55,1.55,0,0,0,2.188,0A1.532,1.532,0,0,0,540.027,140.246Z" fill="#a81417"/>
      <path id="Path_303" data-name="Path 303" d="M547.25,142h-1.943l-.372.721h-1.428l2.776-5.154,2.767,5.154h-1.427Zm-.5-.968-.468-.9-.476.9Z" fill="#a81417"/>
      <path id="Path_304" data-name="Path 304" d="M553.717,137.566v2.974a2.2,2.2,0,0,1-4.408-.016v-2.958h1.149v2.958a.934.934,0,0,0,.341.761.989.989,0,0,0,1.063.214,1.246,1.246,0,0,0,.373-.222,1.025,1.025,0,0,0,.245-.317.9.9,0,0,0,.088-.42v-2.974Z" fill="#a81417"/>
      <path id="Path_305" data-name="Path 305" d="M558.147,140.96l1.11,1.76h-1.388l-1.078-1.641H556.2v1.641h-1.237v-5.154h2.466a1.75,1.75,0,0,1,1.84,1.76A1.713,1.713,0,0,1,558.147,140.96Zm-1.943-.992h1.221a.993.993,0,0,0,.405-.071.635.635,0,0,0,.182-.135.724.724,0,0,0,.151-.436.664.664,0,0,0-.167-.444.681.681,0,0,0-.563-.206H556.2Z" fill="#a81417"/>
    </g>
  </g>
</svg>
