<svg xmlns="http://www.w3.org/2000/svg" width="500" height="500" viewBox="0 0 22.248 22.248">
  <g id="gender" transform="translate(0.3 0.3)">
    <path id="Path_1000" data-name="Path 1000" d="M5.074,101.352V104h-1.9a.634.634,0,0,0,0,1.268h1.9v1.945a.634.634,0,1,0,1.268,0v-1.945h1.9a.634.634,0,0,0,0-1.268h-1.9v-2.641a6.078,6.078,0,0,0,1.252-.284,7.037,7.037,0,0,1-.99-1.014,4.44,4.44,0,1,1-.9-8.788,4.5,4.5,0,0,1,4.44,4.44,4.382,4.382,0,0,1-.514,2.029,3.17,3.17,0,0,0,1,.8,5.64,5.64,0,0,0,.778-2.824A5.708,5.708,0,0,0,0,95.708,5.7,5.7,0,0,0,5.074,101.352Z" transform="translate(0 -86.195)" fill="#a81417" stroke="#a81417" stroke-width="0.6"/>
    <path id="Path_1001" data-name="Path 1001" d="M164.672,0h-3.805a.634.634,0,1,0,0,1.268h2.274l-3.89,3.805a5.495,5.495,0,0,0-5.429-.923,7.037,7.037,0,0,1,.99,1.014,4.44,4.44,0,1,1,.9,8.788,4.5,4.5,0,0,1-4.44-4.44,4.382,4.382,0,0,1,.514-2.029,3.17,3.17,0,0,0-1-.8A5.64,5.64,0,0,0,150,9.513a5.779,5.779,0,0,0,5.708,5.708,5.714,5.714,0,0,0,5.708-5.708,5.651,5.651,0,0,0-1.268-3.543l3.89-3.805V4.44a.634.634,0,1,0,1.268,0V.634A.637.637,0,0,0,164.672,0Z" transform="translate(-143.658)" fill="#a81417" stroke="#a81417" stroke-width="0.6"/>
  </g>
</svg>
