<svg xmlns="http://www.w3.org/2000/svg" width="500" height="500" viewBox="0 0 19.5 19.5">
  <g id="Group_1372" data-name="Group 1372" transform="translate(-715.416 -426.531)">
    <g id="Group_1371" data-name="Group 1371">
      <path id="Path_709" data-name="Path 709" d="M725.391,437.733a3.972,3.972,0,0,1,.077-.91,1.218,1.218,0,0,1,.407-.589c.029-.028.121-.109.273-.241a4.578,4.578,0,0,0,.38-.364q.15-.166.34-.418a1.919,1.919,0,0,0,.29-.557,2.019,2.019,0,0,0,.1-.637,1.665,1.665,0,0,0-.6-1.322,2.449,2.449,0,0,0-1.654-.52,2.476,2.476,0,0,0-1.382.357,1.089,1.089,0,0,0-.544.822" fill="none" stroke="#a81417" stroke-linecap="round" stroke-linejoin="round" stroke-width="1.5"/>
      <path id="Path_710" data-name="Path 710" d="M724.313,440.324a1.048,1.048,0,0,1,.295-.754.973.973,0,0,1,.732-.31,1.088,1.088,0,0,1,.774.31,1.025,1.025,0,0,1,0,1.5,1.072,1.072,0,0,1-.774.319.96.96,0,0,1-.732-.319A1.057,1.057,0,0,1,724.313,440.324Z" fill="#a81417"/>
    </g>
    <circle id="Ellipse_303" data-name="Ellipse 303" cx="9" cy="9" r="9" transform="translate(716.166 427.281)" fill="none" stroke="#a81417" stroke-linecap="round" stroke-linejoin="round" stroke-width="1.5"/>
  </g>
</svg>
