<svg xmlns="http://www.w3.org/2000/svg" width="1000" height="1000" viewBox="0 0 26.469 28.156">
  <g id="Group_938" data-name="Group 938" transform="translate(-670.611 -502.098)">
    <path id="Path_395" data-name="Path 395" d="M679.348,521.27a4.652,4.652,0,0,1,4.5-4.768h0a4.652,4.652,0,0,1,4.5,4.768v7.984h-9Z" fill="none" stroke="#B8C1D4" stroke-linecap="round" stroke-linejoin="round" stroke-width="2"/>
    <path id="Path_396" data-name="Path 396" d="M671.611,524.718a4.535,4.535,0,0,0,4.535,4.536h15.4a4.535,4.535,0,0,0,4.535-4.536V513.639a4.535,4.535,0,0,0-1.753-3.582l-7.532-5.85a4.535,4.535,0,0,0-5.57.005l-7.867,6.134a4.533,4.533,0,0,0-1.747,3.576Z" fill="none" stroke="#B8C1D4" stroke-linecap="round" stroke-linejoin="round" stroke-width="2"/>
  </g>
</svg>
