<svg xmlns="http://www.w3.org/2000/svg" width="500" height="500" viewBox="0 0 48 48">
  <g id="Group_835" data-name="Group 835" transform="translate(-179.005 -357.964)">
    <path id="Path_251" data-name="Path 251" d="M220.592,357.964h-8.363l1.426,2.137a.286.286,0,0,0,.234.127l2.827.04a.287.287,0,0,1,.22.464l-1.751,2.219a.284.284,0,0,0-.049.262l.836,2.7a.286.286,0,0,1-.373.353l-2.349-.868.115.185s.911,25.219-7.037,40.38h14.264a6.431,6.431,0,0,0,6.413-6.412V364.377A6.432,6.432,0,0,0,220.592,357.964Z" fill="#25272b"/>
    <path id="Path_252" data-name="Path 252" d="M200.952,395.369c-1.857-1.469-7.581,1.608-10.623,3.433a.486.486,0,0,1-.652-.69l6.415-8.772a3.827,3.827,0,0,0,.163-4.274s-5.985-7.61-6.939-9.859.639-2.069.639-2.069,9.106,9.293,20.62,6.265c0,0-3.731.2-5.3-.982,0,0,5.712-3.3,7.072-12.861l-1.973,1.391a.286.286,0,0,1-.451-.245l.113-2.825a.291.291,0,0,0-.115-.241l-2.264-1.694a.286.286,0,0,1,.094-.5l2.722-.767a.283.283,0,0,0,.193-.183l.862-2.528H185.418a6.432,6.432,0,0,0-6.413,6.413v35.175a6.431,6.431,0,0,0,6.413,6.412h17.448C203.075,404.367,203.772,397.6,200.952,395.369Zm-3.68-19.16c-1.459-.422-1.086-3.992-1.086-3.992S198.732,376.631,197.272,376.209Zm2.128-10.617,5.461.9-1.1,1.166A5.339,5.339,0,0,1,205.378,371c.3,2.627-1.2,4.951-3.332,5.192s-4.107-1.7-4.4-4.322a5.623,5.623,0,0,1,.246-2.425l-2.336-.437Z" fill="#a81417"/>
    <path id="Path_253" data-name="Path 253" d="M197.272,376.209c1.46.422-1.086-3.992-1.086-3.992S195.813,375.787,197.272,376.209Z" fill="#fff"/>
    <path id="Path_254" data-name="Path 254" d="M212.345,365.56l.338-.238a.289.289,0,0,1,.264-.035l.3.112-.743-1.189C212.464,364.675,212.407,365.122,212.345,365.56Z" fill="#fff"/>
  </g>
</svg>
