<svg xmlns="http://www.w3.org/2000/svg" width="500" height="500" viewBox="0 0 28.72 30">
  <g id="Group_947" data-name="Group 947" transform="translate(-1031.238 -342.633)">
    <path id="Path_419" data-name="Path 419" d="M1055.474,368.38h1.553a1.932,1.932,0,0,0,1.931-1.932V345.564a1.931,1.931,0,0,0-1.931-1.931h-1.311" fill="none" stroke="#fff" stroke-linecap="round" stroke-linejoin="round" stroke-width="2"/>
    <path id="Path_420" data-name="Path 420" d="M1039.17,347.348v-1.784a1.931,1.931,0,0,1,1.931-1.931h10.848" fill="none" stroke="#fff" stroke-linecap="round" stroke-linejoin="round" stroke-width="2"/>
    <path id="Path_421" data-name="Path 421" d="M1035.361,367.351V349.233a1.931,1.931,0,0,1,1.931-1.931h16.068a1.931,1.931,0,0,1,1.931,1.931v19.54a2.859,2.859,0,0,1-2.86,2.86h0" fill="none" stroke="#fff" stroke-linecap="round" stroke-linejoin="round" stroke-width="2"/>
    <path id="Path_422" data-name="Path 422" d="M1052.576,371.627h-16.887c-1.906,0-3.451-1.824-3.451-4.113h16.957S1048.8,371.627,1052.576,371.627Z" fill="none" stroke="#fff" stroke-linecap="round" stroke-linejoin="round" stroke-width="2"/>
    <line id="Line_296" data-name="Line 296" x2="10.09" transform="translate(1039.426 353.214)" fill="none" stroke="#fff" stroke-linecap="round" stroke-linejoin="round" stroke-width="2"/>
    <line id="Line_297" data-name="Line 297" x2="4.756" transform="translate(1039.426 357.588)" fill="none" stroke="#fff" stroke-linecap="round" stroke-linejoin="round" stroke-width="2"/>
    <line id="Line_298" data-name="Line 298" x2="7.426" transform="translate(1039.426 361.963)" fill="none" stroke="#fff" stroke-linecap="round" stroke-linejoin="round" stroke-width="2"/>
  </g>
</svg>
